<?xml version="1.0" encoding="UTF-8"?>
<svg width="2560px" height="1280px" viewBox="0 0 2560 1280" version="1.1" xmlns="http://www.w3.org/2000/svg" xmlns:xlink="http://www.w3.org/1999/xlink">
    <!-- Generator: Sketch 46.2 (44496) - http://www.bohemiancoding.com/sketch -->
    <title>kikstart-ui-header</title>
    <desc>Created with Sketch.</desc>
    <defs></defs>
    <g id="kikstart" stroke="none" stroke-width="1" fill="none" fill-rule="evenodd">
        <g id="kikstart-ui-header">
            <g id="Group-2" transform="translate(675.000000, 240.000000)">
                <g id="Group" transform="translate(350.000000, 0.000000)">
                    <rect id="Rectangle" fill="#E83E8C" x="0" y="0" width="512" height="512"></rect>
                    <g id="kikstart-logo-square-white-pink-bg" fill="#FFFFFF">
                        <path d="M189.186,233.064 L201.408,233.064 C206.322691,233.064 210.39665,232.385007 213.63,231.027 C216.86335,229.668993 219.643988,227.502682 221.972,224.528 L299.378,126.558 C302.61135,122.419313 306.006316,119.541675 309.563,117.925 C313.119684,116.308325 317.613973,115.5 323.046,115.5 L368.054,115.5 L273.576,232.094 C268.014639,239.207369 262.259363,244.251318 256.31,247.226 C260.578021,248.778008 264.42565,250.944319 267.853,253.725 C271.28035,256.505681 274.545984,260.159311 277.65,264.686 L375.038,396.024 L329.06,396.024 C322.851969,396.024 318.228349,395.151009 315.189,393.405 C312.149651,391.658991 309.595344,389.104683 307.526,385.742 L228.18,282.146 C225.722654,278.653983 222.87735,276.196674 219.644,274.774 C216.410651,273.351326 211.754697,272.64 205.676,272.64 L189.186,272.64 L189.186,396.024 L137,396.024 L137,115.5 L189.186,115.5 L189.186,233.064 Z" id="K"></path>
                    </g>
                </g>
                <g id="Group-5" transform="translate(0.000000, 612.000000)">
                    <path d="M31.125,0.25 L31.125,106.625 L36.875,106.625 C38.9583438,106.625 40.6041606,106.354169 41.8125,105.8125 C43.0208394,105.270831 44.2499938,104.166675 45.5,102.5 L77.375,63.125 C78.70834,61.3749912 80.1874919,60.0416713 81.8125,59.125 C83.4375081,58.2083287 85.5416538,57.75 88.125,57.75 L116.375,57.75 L76.5,105.375 C73.6666525,109.125019 70.58335,111.99999 67.25,114 C69.0000088,115.250006 70.5624931,116.708325 71.9375,118.375 C73.3125069,120.041675 74.6249938,121.833324 75.875,123.75 L118.625,186 L90.75,186 C88.3333213,186 86.2500088,185.604171 84.5,184.8125 C82.7499913,184.020829 81.2916725,182.583344 80.125,180.5 L47.375,131.875 C46.2083275,129.958324 45.0000062,128.708336 43.75,128.125 C42.4999938,127.541664 40.6250125,127.25 38.125,127.25 L31.125,127.25 L31.125,186 L0.25,186 L0.25,0.25 L31.125,0.25 Z M180.875,57.75 L180.875,186 L149.875,186 L149.875,57.75 L180.875,57.75 Z M185.125,20.375 C185.125,23.04168 184.583339,25.541655 183.5,27.875 C182.416661,30.208345 180.979176,32.2499912 179.1875,34 C177.395824,35.7500088 175.291679,37.1458281 172.875,38.1875 C170.458321,39.2291719 167.875014,39.75 165.125,39.75 C162.45832,39.75 159.937512,39.2291719 157.5625,38.1875 C155.187488,37.1458281 153.125009,35.7500088 151.375,34 C149.624991,32.2499912 148.229172,30.208345 147.1875,27.875 C146.145828,25.541655 145.625,23.04168 145.625,20.375 C145.625,17.6249863 146.145828,15.0416787 147.1875,12.625 C148.229172,10.2083212 149.624991,8.12500875 151.375,6.375 C153.125009,4.62499125 155.187488,3.22917188 157.5625,2.1875 C159.937512,1.14582812 162.45832,0.625 165.125,0.625 C167.875014,0.625 170.458321,1.14582812 172.875,2.1875 C175.291679,3.22917188 177.395824,4.62499125 179.1875,6.375 C180.979176,8.12500875 182.416661,10.2083212 183.5,12.625 C184.583339,15.0416787 185.125,17.6249863 185.125,20.375 Z M258.25,0.25 L258.25,106.625 L264,106.625 C266.083344,106.625 267.729161,106.354169 268.9375,105.8125 C270.145839,105.270831 271.374994,104.166675 272.625,102.5 L304.5,63.125 C305.83334,61.3749912 307.312492,60.0416713 308.9375,59.125 C310.562508,58.2083287 312.666654,57.75 315.25,57.75 L343.5,57.75 L303.625,105.375 C300.791653,109.125019 297.70835,111.99999 294.375,114 C296.125009,115.250006 297.687493,116.708325 299.0625,118.375 C300.437507,120.041675 301.749994,121.833324 303,123.75 L345.75,186 L317.875,186 C315.458321,186 313.375009,185.604171 311.625,184.8125 C309.874991,184.020829 308.416673,182.583344 307.25,180.5 L274.5,131.875 C273.333327,129.958324 272.125006,128.708336 270.875,128.125 C269.624994,127.541664 267.750013,127.25 265.25,127.25 L258.25,127.25 L258.25,186 L227.375,186 L227.375,0.25 L258.25,0.25 Z M454.25,82.75 C453.416663,84.08334 452.541671,85.0208306 451.625,85.5625 C450.708329,86.1041694 449.541674,86.375 448.125,86.375 C446.624992,86.375 445.020842,85.9583375 443.3125,85.125 C441.604158,84.2916625 439.625011,83.3541719 437.375,82.3125 C435.124989,81.2708281 432.562514,80.3333375 429.6875,79.5 C426.812486,78.6666625 423.416686,78.25 419.5,78.25 C413.416636,78.25 408.645851,79.5416538 405.1875,82.125 C401.729149,84.7083462 400,88.0833125 400,92.25 C400,95.0000137 400.895824,97.3124906 402.6875,99.1875 C404.479176,101.062509 406.854152,102.708326 409.8125,104.125 C412.770848,105.541674 416.124981,106.812494 419.875,107.9375 C423.625019,109.062506 427.437481,110.29166 431.3125,111.625 C435.187519,112.95834 438.999981,114.479158 442.75,116.1875 C446.500019,117.895842 449.854152,120.062487 452.8125,122.6875 C455.770848,125.312513 458.145824,128.458315 459.9375,132.125 C461.729176,135.791685 462.625,140.208308 462.625,145.375 C462.625,151.541698 461.520844,157.229141 459.3125,162.4375 C457.104156,167.645859 453.833355,172.145814 449.5,175.9375 C445.166645,179.729186 439.812532,182.687489 433.4375,184.8125 C427.062468,186.937511 419.708375,188 411.375,188 C406.958311,188 402.645854,187.604171 398.4375,186.8125 C394.229146,186.020829 390.187519,184.916674 386.3125,183.5 C382.437481,182.083326 378.854183,180.416676 375.5625,178.5 C372.270817,176.583324 369.375013,174.500011 366.875,172.25 L374,160.5 C374.916671,159.083326 375.999994,158.000004 377.25,157.25 C378.500006,156.499996 380.083324,156.125 382,156.125 C383.916676,156.125 385.729158,156.666661 387.4375,157.75 C389.145842,158.833339 391.124989,159.999994 393.375,161.25 C395.625011,162.500006 398.270818,163.666661 401.3125,164.75 C404.354182,165.833339 408.20831,166.375 412.875,166.375 C416.541685,166.375 419.687487,165.937504 422.3125,165.0625 C424.937513,164.187496 427.104158,163.041674 428.8125,161.625 C430.520842,160.208326 431.770829,158.562509 432.5625,156.6875 C433.354171,154.812491 433.75,152.87501 433.75,150.875 C433.75,147.874985 432.854176,145.416676 431.0625,143.5 C429.270824,141.583324 426.895848,139.916674 423.9375,138.5 C420.979152,137.083326 417.604186,135.812506 413.8125,134.6875 C410.020814,133.562494 406.145853,132.33334 402.1875,131 C398.229147,129.66666 394.354186,128.104176 390.5625,126.3125 C386.770814,124.520824 383.395848,122.250014 380.4375,119.5 C377.479152,116.749986 375.104176,113.37502 373.3125,109.375 C371.520824,105.37498 370.625,100.541695 370.625,94.875 C370.625,89.6249737 371.666656,84.6250237 373.75,79.875 C375.833344,75.1249763 378.895813,70.9791844 382.9375,67.4375 C386.979187,63.8958156 392.020803,61.0625106 398.0625,58.9375 C404.104197,56.8124894 411.083294,55.75 419,55.75 C427.833377,55.75 435.874964,57.2083187 443.125,60.125 C450.375036,63.0416813 456.416642,66.8749763 461.25,71.625 L454.25,82.75 Z M543.625,188 C532.458277,188 523.895863,184.854198 517.9375,178.5625 C511.979137,172.270802 509,163.583389 509,152.5 L509,80.875 L495.875,80.875 C494.208325,80.875 492.791673,80.3333387 491.625,79.25 C490.458327,78.1666613 489.875,76.5416775 489.875,74.375 L489.875,62.125 L510.5,58.75 L517,23.75 C517.416669,22.083325 518.208327,20.7916713 519.375,19.875 C520.541673,18.9583287 522.041657,18.5 523.875,18.5 L539.875,18.5 L539.875,58.875 L574.125,58.875 L574.125,80.875 L539.875,80.875 L539.875,150.375 C539.875,154.37502 540.854157,157.499989 542.8125,159.75 C544.770843,162.000011 547.458316,163.125 550.875,163.125 C552.791676,163.125 554.395827,162.895836 555.6875,162.4375 C556.979173,161.979164 558.104162,161.500002 559.0625,161 C560.020838,160.499998 560.874996,160.020836 561.625,159.5625 C562.375004,159.104164 563.124996,158.875 563.875,158.875 C564.791671,158.875 565.541664,159.104164 566.125,159.5625 C566.708336,160.020836 567.33333,160.708329 568,161.625 L577.25,176.625 C572.749978,180.375019 567.583363,183.208324 561.75,185.125 C555.916637,187.041676 549.875031,188 543.625,188 Z M676.625,131.25 C667.708289,131.666669 660.208364,132.437494 654.125,133.5625 C648.041636,134.687506 643.166685,136.124991 639.5,137.875 C635.833315,139.625009 633.208341,141.666655 631.625,144 C630.041659,146.333345 629.25,148.874986 629.25,151.625 C629.25,157.041694 630.854151,160.916655 634.0625,163.25 C637.270849,165.583345 641.458308,166.75 646.625,166.75 C652.958365,166.75 658.437477,165.604178 663.0625,163.3125 C667.687523,161.020822 672.208311,157.54169 676.625,152.875 L676.625,131.25 Z M605.875,75.625 C620.625074,62.1249325 638.374896,55.375 659.125,55.375 C666.625037,55.375 673.333304,56.6041544 679.25,59.0625 C685.166696,61.5208456 690.166646,64.9374781 694.25,69.3125 C698.333354,73.6875219 701.437489,78.9166363 703.5625,85 C705.687511,91.0833638 706.75,97.7499638 706.75,105 L706.75,186 L692.75,186 C689.833319,186 687.583341,185.562504 686,184.6875 C684.416659,183.812496 683.166671,182.04168 682.25,179.375 L679.5,170.125 C676.249984,173.041681 673.083349,175.604156 670,177.8125 C666.916651,180.020844 663.70835,181.874993 660.375,183.375 C657.04165,184.875008 653.479186,186.020829 649.6875,186.8125 C645.895814,187.604171 641.708356,188 637.125,188 C631.708306,188 626.708356,187.270841 622.125,185.8125 C617.541644,184.354159 613.58335,182.166681 610.25,179.25 C606.91665,176.333319 604.333343,172.708355 602.5,168.375 C600.666657,164.041645 599.75,159.000029 599.75,153.25 C599.75,149.999984 600.291661,146.770849 601.375,143.5625 C602.458339,140.354151 604.229154,137.291681 606.6875,134.375 C609.145846,131.458319 612.333314,128.708346 616.25,126.125 C620.166686,123.541654 624.979138,121.291676 630.6875,119.375 C636.395862,117.458324 643.041629,115.895839 650.625,114.6875 C658.208371,113.479161 666.874951,112.750001 676.625,112.5 L676.625,105 C676.625,96.4166238 674.791685,90.0625206 671.125,85.9375 C667.458315,81.8124794 662.166701,79.75 655.25,79.75 C650.249975,79.75 646.104183,80.3333275 642.8125,81.5 C639.520817,82.6666725 636.625013,83.9791594 634.125,85.4375 C631.624987,86.8958406 629.354177,88.2083275 627.3125,89.375 C625.270823,90.5416725 623.000013,91.125 620.5,91.125 C618.333323,91.125 616.500008,90.5625056 615,89.4375 C613.499992,88.3124944 612.291671,87.0000075 611.375,85.5 L605.875,75.625 Z M779.875,80 C783.87502,72.333295 788.624973,66.3125219 794.125,61.9375 C799.625027,57.5624781 806.124963,55.375 813.625,55.375 C819.541696,55.375 824.291649,56.6666538 827.875,59.25 L825.875,82.375 C825.458331,83.8750075 824.854171,84.9374969 824.0625,85.5625 C823.270829,86.1875031 822.20834,86.5 820.875,86.5 C819.624994,86.5 817.770846,86.2916687 815.3125,85.875 C812.854154,85.4583313 810.458345,85.25 808.125,85.25 C804.708316,85.25 801.66668,85.749995 799,86.75 C796.33332,87.750005 793.937511,89.1874906 791.8125,91.0625 C789.687489,92.9375094 787.812508,95.20832 786.1875,97.875 C784.562492,100.54168 783.041674,103.583316 781.625,107 L781.625,186 L750.75,186 L750.75,57.75 L768.875,57.75 C772.041682,57.75 774.249994,58.3124944 775.5,59.4375 C776.750006,60.5625056 777.583331,62.5833187 778,65.5 L779.875,80 Z M901.75,188 C890.583278,188 882.020863,184.854198 876.0625,178.5625 C870.104137,172.270802 867.125,163.583389 867.125,152.5 L867.125,80.875 L854,80.875 C852.333325,80.875 850.916673,80.3333387 849.75,79.25 C848.583327,78.1666613 848,76.5416775 848,74.375 L848,62.125 L868.625,58.75 L875.125,23.75 C875.541669,22.083325 876.333327,20.7916713 877.5,19.875 C878.666673,18.9583287 880.166657,18.5 882,18.5 L898,18.5 L898,58.875 L932.25,58.875 L932.25,80.875 L898,80.875 L898,150.375 C898,154.37502 898.979157,157.499989 900.9375,159.75 C902.895843,162.000011 905.583316,163.125 909,163.125 C910.916676,163.125 912.520827,162.895836 913.8125,162.4375 C915.104173,161.979164 916.229162,161.500002 917.1875,161 C918.145838,160.499998 918.999996,160.020836 919.75,159.5625 C920.500004,159.104164 921.249996,158.875 922,158.875 C922.916671,158.875 923.666664,159.104164 924.25,159.5625 C924.833336,160.020836 925.45833,160.708329 926.125,161.625 L935.375,176.625 C930.874978,180.375019 925.708363,183.208324 919.875,185.125 C914.041637,187.041676 908.000031,188 901.75,188 Z" id="kikstart" fill="#555555"></path>
                    <path d="M966.75,169 C966.75,166.416654 967.229162,163.958345 968.1875,161.625 C969.145838,159.291655 970.458325,157.291675 972.125,155.625 C973.791675,153.958325 975.791655,152.625005 978.125,151.625 C980.458345,150.624995 982.95832,150.125 985.625,150.125 C988.29168,150.125 990.770822,150.624995 993.0625,151.625 C995.354178,152.625005 997.354158,153.958325 999.0625,155.625 C1000.77084,157.291675 1002.12499,159.291655 1003.125,161.625 C1004.12501,163.958345 1004.625,166.416654 1004.625,169 C1004.625,171.66668 1004.12501,174.145822 1003.125,176.4375 C1002.12499,178.729178 1000.77084,180.708325 999.0625,182.375 C997.354158,184.041675 995.354178,185.354162 993.0625,186.3125 C990.770822,187.270838 988.29168,187.75 985.625,187.75 C982.95832,187.75 980.458345,187.270838 978.125,186.3125 C975.791655,185.354162 973.791675,184.041675 972.125,182.375 C970.458325,180.708325 969.145838,178.729178 968.1875,176.4375 C967.229162,174.145822 966.75,171.66668 966.75,169 Z" id="." fill="#E83E8C"></path>
                    <path d="M1135.875,61 L1135.875,185.375 L1129.25,185.375 C1127.16666,185.375 1125.95834,184.291677 1125.625,182.125 L1124.5,163.625 C1118.74997,170.791702 1112.1042,176.541645 1104.5625,180.875 C1097.0208,185.208355 1088.62505,187.375 1079.375,187.375 C1072.4583,187.375 1066.41669,186.291677 1061.25,184.125 C1056.08331,181.958323 1051.79168,178.833354 1048.375,174.75 C1044.95832,170.666646 1042.37501,165.750029 1040.625,160 C1038.87499,154.249971 1038,147.750036 1038,140.5 L1038,61 L1050,61 L1050,140.5 C1050,152.166725 1052.66664,161.312467 1058,167.9375 C1063.33336,174.562533 1071.45828,177.875 1082.375,177.875 C1090.45837,177.875 1098.0208,175.812521 1105.0625,171.6875 C1112.1042,167.562479 1118.37497,161.83337 1123.875,154.5 L1123.875,61 L1135.875,61 Z M1205,61 L1205,185.375 L1193.125,185.375 L1193.125,61 L1205,61 Z M1210.125,18.125 C1210.125,19.6250075 1209.8125,21.0208269 1209.1875,22.3125 C1208.5625,23.6041731 1207.75,24.749995 1206.75,25.75 C1205.75,26.750005 1204.58334,27.5416637 1203.25,28.125 C1201.91666,28.7083363 1200.50001,29 1199,29 C1197.49999,29 1196.08334,28.7083363 1194.75,28.125 C1193.41666,27.5416637 1192.25,26.750005 1191.25,25.75 C1190.25,24.749995 1189.45834,23.6041731 1188.875,22.3125 C1188.29166,21.0208269 1188,19.6250075 1188,18.125 C1188,16.6249925 1188.29166,15.1875069 1188.875,13.8125 C1189.45834,12.4374931 1190.25,11.250005 1191.25,10.25 C1192.25,9.249995 1193.41666,8.45833625 1194.75,7.875 C1196.08334,7.29166375 1197.49999,7 1199,7 C1200.50001,7 1201.91666,7.29166375 1203.25,7.875 C1204.58334,8.45833625 1205.75,9.249995 1206.75,10.25 C1207.75,11.250005 1208.5625,12.4374931 1209.1875,13.8125 C1209.8125,15.1875069 1210.125,16.6249925 1210.125,18.125 Z" id="ui" fill="#BDBDBD"></path>
                </g>
            </g>
        </g>
    </g>
</svg>