<?xml version="1.0" encoding="UTF-8"?>
<svg width="882px" height="442px" viewBox="0 0 882 442" version="1.1" xmlns="http://www.w3.org/2000/svg" xmlns:xlink="http://www.w3.org/1999/xlink">
    <!-- Generator: Sketch 46.2 (44496) - http://www.bohemiancoding.com/sketch -->
    <title>kikstart.dev ui</title>
    <desc>Created with Sketch.</desc>
    <defs></defs>
    <g id="Page-1" stroke="none" stroke-width="1" fill="none" fill-rule="evenodd">
        <g id="kikstart.dev-ui">
            <g id="logo" transform="translate(341.000000, 36.000000)" fill-rule="nonzero">
                <circle id="Oval" fill="#1A2B63" cx="100" cy="109.375" r="100"></circle>
                <path d="M84.4786902,154.43601 C89.6679327,154.43601 94.4485992,156.992139 97.2671988,161.274318 C97.3365255,161.379986 97.453027,161.447887 97.5810147,161.457128 C97.5912701,161.457932 97.6019357,161.458333 97.6121911,161.458333 C97.7295131,161.458333 97.8415023,161.409316 97.9194435,161.322531 C102.144677,156.641385 108.219167,153.956686 114.585321,153.956686 C116.754548,153.956686 118.849935,154.267664 120.833333,154.837791 L113.512604,136.458333 L87.6090546,136.458333 L80.2083333,155.03828 C81.5640998,154.648552 82.9961667,154.43601 84.4786902,154.43601 Z" id="Shape" fill="#D9EAFC"></path>
                <g id="Group" transform="translate(70.833333, 136.458333)" fill="#AEC1ED">
                    <path d="M19.441317,0.0739114114 L16.0832751,0.0739114114 L8.72389277,19.1686562 C9.86934732,18.8288288 11.0719114,18.6293919 12.3111888,18.5740616 L19.441317,0.0739114114 Z" id="Shape"></path>
                    <path d="M5.13414918,38.0672673 C5.1504662,38.1762763 5.20879953,38.2741366 5.2965035,38.3393769 C5.36666667,38.3918168 5.45151515,38.419482 5.53758741,38.419482 C5.55879953,38.419482 5.58041958,38.4178303 5.6016317,38.414527 C7.05792541,38.1799925 8.520338,38.0610736 9.94807692,38.0610736 C16.9231935,38.0610736 23.5768648,40.714039 28.6844988,45.5310811 C28.7628205,45.6049925 28.8627622,45.6417417 28.962704,45.6417417 C29.0626457,45.6417417 29.1625874,45.6049925 29.2409091,45.5310811 C34.3481352,40.714039 41.0022145,38.0610736 47.977331,38.0610736 C49.404662,38.0610736 50.8674825,38.1799925 52.3237762,38.414527 C52.3453963,38.4178303 52.3666084,38.419482 52.3878205,38.419482 C52.4738928,38.419482 52.5587413,38.3918168 52.6289044,38.3393769 C52.7166084,38.2741366 52.7749417,38.1762763 52.7912587,38.0672673 C53.5451049,32.9314565 55.4546037,28.0673423 58.3194639,23.8221847 C54.2899767,19.9936562 48.8723193,17.6441817 42.9088578,17.6441817 C36.1874709,17.6441817 30.1575175,20.6278904 26.0305361,25.3536787 C23.2664336,21.0135511 18.4520979,18.1367868 12.9708042,18.1367868 C7.71305361,18.1367868 3.06923077,20.7839715 0.259032634,24.8309309 C2.75961538,28.8316441 4.43945221,33.3332207 5.13414918,38.0672673 Z" id="Shape"></path>
                </g>
                <path d="M76.0416667,174.21327 C73.5869272,157.56496 59.3442988,144.791667 42.1374643,144.791667 C30.1921261,144.791667 19.6781074,150.94961 13.5416667,160.283924 C22.9372248,176.18304 36.5573985,189.246888 52.8403405,197.916667 C54.5816637,185.765989 64.0363672,176.134956 76.0416667,174.21327 Z" id="Shape" fill="#445EA0"></path>
                <path d="M45.6616215,149.092647 C54.431318,149.092647 62.4702066,152.256882 68.75,157.51604 C62.4432002,149.746972 52.9066871,144.791667 42.2277239,144.791667 C30.2446815,144.791667 19.6974764,151.028566 13.5416667,160.482564 C14.3547213,161.871547 15.2017385,163.238054 16.0769895,164.583333 C22.6726754,155.207172 33.4625283,149.092647 45.6616215,149.092647 Z" id="Shape" fill="#293D7C"></path>
                <path d="M157.862536,144.791667 C140.655701,144.791667 126.413073,157.565371 123.958333,174.21327 C135.963633,176.134956 145.418336,185.765989 147.159659,197.916667 C163.442194,189.246888 177.062775,176.182629 186.458333,160.283924 C180.321893,150.94961 169.807874,144.791667 157.862536,144.791667 Z" id="Shape" fill="#445EA0"></path>
                <g id="Group" transform="translate(53.125000, 144.791667)" fill="#293D7C">
                    <path d="M106.098156,0.249340717 C105.413434,0.20846519 104.723827,0.185574895 104.02852,0.185574895 C86.8559148,0.185574895 72.6416188,12.8905063 70.1917625,29.4487737 C71.4683908,29.6523339 72.7140805,29.9482727 73.9263889,30.3198312 C77.3304598,14.6730881 90.1309387,2.557173 106.098156,0.249340717 Z" id="Shape"></path>
                    <path d="M65.7903257,29.0939742 C58.4562261,29.0939742 51.7885297,31.9454509 46.8151341,36.5983122 C41.8417385,31.9450422 35.1740421,29.0939742 27.8399425,29.0939742 C13.821863,29.0939742 2.22595785,39.4951609 0.282112069,53.0298655 C14.1752155,60.4025844 30.0076868,64.5833333 46.8151341,64.5833333 C63.6225814,64.5833333 79.4550527,60.4025844 93.3481561,53.0298655 C91.4043103,39.4951609 79.8084052,29.0939742 65.7903257,29.0939742 Z" id="Shape"></path>
                </g>
                <path d="M86.9200928,177.386375 C90.8088737,177.386375 94.5200113,178.12608 97.9166667,179.467225 C93.2085009,176.012981 87.3652315,173.958333 81.0265392,173.958333 C66.8336224,173.958333 55.09309,184.215852 53.125,197.563607 C54.7831416,198.420618 56.4693104,199.23248 58.1802091,200 C61.0682523,187.070269 72.8331025,177.386375 86.9200928,177.386375 Z" id="Shape" fill="#1A2B63"></path>
                <g id="Group" transform="translate(88.541667, 136.458333)" fill="#AEC1ED">
                    <path d="M19.8429487,0.0745833333 L13.7856571,0.0745833333 L14.5584936,6.43333333 C14.7664263,8.14583333 16.2720353,9.35708333 17.916266,9.14166667 C19.5625,8.925 20.728766,7.36166667 20.5204327,5.64958333 L19.8429487,0.0745833333 Z" id="Shape"></path>
                    <path d="M1.79166667,0.0745833333 L0.202724359,13.1495833 C-0.00520833333,14.8616667 1.16065705,16.4254167 2.80729167,16.6416667 C2.93509615,16.6583333 3.06209936,16.6666667 3.18790064,16.6666667 C4.67948718,16.66625 5.97355769,15.5120833 6.16546474,13.9329167 L7.84975962,0.0741666667 L1.79166667,0.0741666667 L1.79166667,0.0745833333 L1.79166667,0.0745833333 Z" id="Shape"></path>
                </g>
                <path d="M68.6467574,79.806225 C68.6467574,76.4539254 68.7742389,73.1106694 69.0125376,69.7916667 C58.9889955,75.3612936 52.0833333,87.7691184 52.0833333,102.134061 C52.0833333,109.720823 53.9951386,116.956117 57.6116959,123.057673 C57.9512298,123.630708 58.5657238,123.958333 59.2039643,123.958333 C59.4372637,123.958333 59.6734793,123.91476 59.9005296,123.82309 C64.6535883,121.905846 69.7328495,120.920916 75,120.879808 C70.8410216,108.24836 68.6467574,94.1419817 68.6467574,79.806225 Z" id="Shape" fill="#FE3745"></path>
                <path d="M56.7335614,102.134061 C56.7335614,90.2692638 61.3743561,79.744153 68.5490288,73.300174 C68.6039883,72.1282051 68.6675608,70.9582916 68.75,69.7916667 C58.8819027,75.3612936 52.0833333,87.7691184 52.0833333,102.134061 C52.0833333,109.720823 53.9654904,116.956117 57.5259622,123.057673 C57.8602307,123.630708 58.4651951,123.958333 59.0935377,123.958333 C59.3232191,123.958333 59.5557716,123.91476 59.7793008,123.82309 C60.5503741,123.506975 61.3337517,123.225801 62.1216409,122.960659 C58.5972619,116.879247 56.7335614,109.680949 56.7335614,102.134061 Z" id="Shape" fill="#B7092B"></path>
                <g id="Group" transform="translate(84.375000, 69.791667)" fill="#FE3745">
                    <path d="M46.8469084,0.145675505 C47.0798945,3.4592803 47.2045339,6.79668561 47.2045339,10.1427083 C47.2045339,24.4529672 45.059188,38.5346591 40.9925214,51.1444129 C46.1426549,51.1854482 51.1082732,52.1686553 55.7553686,54.0825442 C55.9773571,54.174053 56.2087139,54.2175505 56.4364049,54.2175505 C57.060824,54.2175505 57.6612113,53.8900884 57.9931757,53.3184659 C61.5295139,47.2275884 63.3982906,40.0049558 63.3982906,32.431471 C63.3986979,18.0916667 56.6469885,5.70555556 46.8469084,0.145675505 Z" id="Shape"></path>
                    <path d="M0.28838141,55.859375 L0.28838141,65.3196654 C0.28838141,66.4481376 1.20484776,67.3714331 2.32497329,67.3714331 L29.4454527,67.3714331 C30.5655783,67.3714331 31.4820446,66.4481376 31.4820446,65.3196654 L31.4820446,55.859375 L0.28838141,55.859375 Z" id="Shape"></path>
                </g>
                <path d="M91.6199959,135.457808 L91.6199959,126.041667 L84.375,126.041667 L84.375,135.457808 C84.375,136.581013 85.3335018,137.5 86.5050041,137.5 L93.75,137.5 C92.5784978,137.5 91.6199959,136.581013 91.6199959,135.457808 Z" id="Shape" fill="#B7092B"></path>
                <path d="M124.30085,36.4583333 L74.657483,36.4583333 C70.1079252,49.682761 67.7083333,64.5675941 67.7083333,79.8086102 C67.7083333,95.6525875 70.3143154,111.226343 75.2440227,124.845615 C75.5042538,125.56374 76.1813441,126.041667 76.9396038,126.041667 L122.01873,126.041667 C122.776989,126.041667 123.454487,125.56374 123.714311,124.845615 C128.644018,111.226343 131.25,95.6525875 131.25,79.8086102 C131.250408,64.5675941 128.850816,49.6831723 124.30085,36.4583333 Z" id="Shape" fill="#EEF6FF"></path>
                <path d="M80.6444838,124.845615 C75.8550927,111.226343 73.3238914,95.6525875 73.3238914,79.8086102 C73.3238914,64.5675941 75.6549899,49.682761 80.0746862,36.4583333 L74.4591281,36.4583333 C70.0394319,49.682761 67.7083333,64.5675941 67.7083333,79.8086102 C67.7083333,95.6525875 70.2399309,111.226343 75.0289258,124.845615 C75.2817289,125.56374 75.9394925,126.041667 76.6761086,126.041667 L82.2916667,126.041667 C81.5550506,126.041667 80.897287,125.56374 80.6444838,124.845615 Z" id="Shape" fill="#D9EAFC"></path>
                <path d="M88.5416667,36.4583333 L88.5416667,42.8621183 C88.5416667,43.9233699 89.4768572,44.7916667 90.6198677,44.7916667 L110.421799,44.7916667 C111.56481,44.7916667 112.5,43.9233699 112.5,42.8621183 L112.5,36.4583333 L88.5416667,36.4583333 Z" id="Shape" fill="#EA2A3D"></path>
                <path d="M92.8789479,42.8621183 L92.8789479,36.4583333 L88.5416667,36.4583333 L88.5416667,42.8621183 C88.5416667,43.9233699 89.4023901,44.7916667 90.4543855,44.7916667 L94.7916667,44.7916667 C93.7396713,44.7916667 92.8789479,43.9233699 92.8789479,42.8621183 Z" id="Shape" fill="#B7092B"></path>
                <path d="M100.000204,0 C99.5970279,0 99.1942599,0.135104799 98.8625687,0.404903743 C89.7377924,7.83320375 82.0517062,19.1015189 76.6363978,32.9918526 C76.0604315,34.4697924 75.5191866,35.9768885 75,37.5 L125,37.5 C124.480813,35.9768885 123.939568,34.4697924 123.363602,32.9918526 C117.948294,19.1015189 110.262616,7.83320375 101.137431,0.404903743 C100.806149,0.135104799 100.403381,0 100.000204,0 Z" id="Shape" fill="#FE3745"></path>
                <path d="M103.125,1.90050154 C102.540573,1.38677479 101.950379,0.887010228 101.353596,0.404903743 C101.019167,0.135104799 100.613074,0 100.20657,0 C99.8000655,0 99.393973,0.135104799 99.0595438,0.404903743 C89.8594464,7.83320375 82.109915,19.1015189 76.6499055,32.9918526 C76.0691849,34.4697924 75.5234723,35.9768885 75,37.5 L80.8368601,37.5 C81.3603323,35.9768885 81.906045,34.4697924 82.4867656,32.9918526 C87.5929885,20.0024913 94.7008442,9.30826891 103.125,1.90050154 Z" id="Shape" fill="#B7092B"></path>
                <circle id="Oval" fill="#445EA0" cx="100" cy="73.9583333" r="20.8333333"></circle>
                <circle id="Oval" fill="#69CDFF" cx="100" cy="73.9583333" r="13.5416667"></circle>
                <path d="M91.2990133,73.9581265 C91.2990133,80.5888123 95.9468567,86.1028685 102.083333,87.2691444 C101.298271,87.4180835 100.490213,87.5 99.6627916,87.5 C92.3696996,87.5 86.4583333,81.4369377 86.4583333,73.9581265 C86.4583333,66.4793153 92.370103,60.4166667 99.6627916,60.4166667 C100.48981,60.4166667 101.298271,60.4985832 102.083333,60.6475223 C95.9468567,61.8137981 91.2990133,67.3274407 91.2990133,73.9581265 Z" id="Shape" fill="#52BBEF"></path>
                <path d="M40.6245841,73.9583333 C40.1475175,73.9583333 39.7174504,73.6709288 39.5348591,73.2300477 C37.2127467,67.623787 35.5007971,65.9122533 29.8945364,63.5901409 C29.4536553,63.4075496 29.1666667,62.9774825 29.1666667,62.5004159 C29.1666667,62.0233493 29.4540712,61.5932823 29.8945364,61.410691 C35.501213,59.0877467 37.2127467,57.3757971 39.5348591,51.7699523 C39.7174504,51.3290712 40.1475175,51.0416667 40.6245841,51.0416667 C41.1016507,51.0416667 41.5317177,51.3290712 41.714309,51.7699523 C44.0368374,57.3757971 45.748787,59.0877467 51.3550477,61.410691 C51.7959288,61.5932823 52.0833333,62.0233493 52.0833333,62.5004159 C52.0833333,62.9774825 51.7959288,63.4079655 51.3550477,63.5901409 C45.748787,65.9118374 44.0368374,67.623787 41.714309,73.2300477 C41.5317177,73.6709288 41.1016507,73.9583333 40.6245841,73.9583333 L40.6245841,73.9583333 Z" id="Shape" fill="#FFD00D"></path>
                <path d="M42.1109753,70.8193403 C39.7490419,65.1171183 38.0077348,63.3762887 32.3053347,61.0144291 C32.023578,60.8980917 31.8040109,60.6814928 31.6792087,60.4166667 C31.1317715,60.6730319 30.5479514,60.9302432 29.9070183,61.1959153 C29.4585768,61.381632 29.1666667,61.8190604 29.1666667,62.3042929 C29.1666667,62.7895254 29.4589998,63.2273769 29.9070183,63.4126705 C35.6094184,65.7745301 37.3507256,67.5153598 39.7126589,73.2175817 C39.8983814,73.6660093 40.3358235,73.9583333 40.8210712,73.9583333 C41.3063188,73.9583333 41.7437609,73.6660093 41.9294834,73.2175817 C42.1947408,72.5766687 42.4523832,71.9928668 42.7083333,71.4458698 C42.443922,71.3210715 42.2277393,71.1010882 42.1109753,70.8193403 Z" id="Shape" fill="#FFAF10"></path>
                <path d="M163.020629,82.2916667 C162.608703,82.2916667 162.237234,82.0436068 162.079492,81.6627306 C160.074212,76.8208626 158.595691,75.3427197 153.753923,73.3373985 C153.373463,73.1800623 153.125,72.8081767 153.125,72.396242 C153.125,71.9838986 153.373055,71.6128304 153.753923,71.4550855 C158.5961,69.4489469 160.074212,67.9703954 162.079492,63.1289361 C162.237234,62.7480599 162.608703,62.5 163.020629,62.5 C163.432555,62.5 163.804024,62.7480599 163.961766,63.1289361 C165.967455,67.9708041 167.445976,69.4489469 172.288152,71.4550855 C172.668612,71.6128304 172.916667,71.9838986 172.916667,72.396242 C172.916667,72.8081767 172.668612,73.1796536 172.287744,73.3373985 C167.445976,75.3427197 165.967455,76.8208626 163.961766,81.6627306 C163.804433,82.0431981 163.432964,82.2916667 163.020629,82.2916667 L163.020629,82.2916667 Z" id="Shape" fill="#FFFFFF"></path>
                <path d="M164.077956,79.6360016 C162.079254,74.8109258 160.606289,73.3379093 155.780978,71.3391355 C155.542746,71.2405815 155.35664,71.0577271 155.251167,70.8333333 C154.788142,71.0499893 154.293761,71.2678671 153.751733,71.4926681 C153.372598,71.6498658 153.125,72.0196471 153.125,72.4305605 C153.125,72.8410666 153.372191,73.2112552 153.751733,73.3684529 C158.577044,75.3668195 160.050008,76.839836 162.048304,81.6649118 C162.205496,82.0444671 162.575671,82.2916667 162.986163,82.2916667 C163.396654,82.2916667 163.76683,82.0444671 163.924022,81.6649118 C164.148408,81.1228645 164.366278,80.6284653 164.583333,80.1654242 C164.359762,80.0603542 164.176914,79.8742418 164.077956,79.6360016 Z" id="Shape" fill="#D9EAFC"></path>
                <path d="M153.124797,39.5833333 C152.647629,39.5833333 152.217568,39.2958141 152.034823,38.8551948 C149.712739,33.248569 148.001025,31.5368547 142.394399,29.2151772 C141.95378,29.032838 141.666667,28.6023713 141.666667,28.1256092 C141.666667,27.6480348 141.954186,27.2183803 142.394399,27.035635 C148.001431,24.7127392 149.713145,23.0010249 152.034823,17.3952113 C152.217568,16.9541859 152.647629,16.6666667 153.124797,16.6666667 C153.601965,16.6666667 154.032026,16.9541859 154.214771,17.3952113 C156.537261,23.001431 158.248975,24.7131453 163.855601,27.035635 C164.29622,27.2183803 164.583333,27.6480348 164.583333,28.1256092 C164.583333,28.6023713 164.295814,29.032838 163.855195,29.2151772 C158.248569,31.5368547 156.537261,33.2489751 154.214365,38.8551948 C154.032026,39.2958141 153.601965,39.5833333 153.124797,39.5833333 L153.124797,39.5833333 Z" id="Shape" fill="#FF9518"></path>
                <path d="M154.611071,36.4445118 C152.248869,30.7422574 150.507886,29.0012214 144.805392,26.6393604 C144.523696,26.5228783 144.304369,26.3064363 144.179217,26.0416667 C143.632346,26.2981752 143.047888,26.5555098 142.406843,26.8206925 C141.958689,27.0065682 141.666667,27.4435827 141.666667,27.929338 C141.666667,28.4142671 141.959102,28.8521077 142.406843,29.0375704 C148.109336,31.3994314 149.850732,33.1404674 152.212108,38.8427218 C152.397978,39.2908888 152.835392,39.5833333 153.32072,39.5833333 C153.806047,39.5833333 154.243461,39.2908888 154.429331,38.8427218 C154.694919,38.2016571 154.952246,37.6175942 155.208333,37.0707065 C154.943572,36.9459632 154.727549,36.7262168 154.611071,36.4445118 Z" id="Shape" fill="#EF8318"></path>
            </g>
            <g id="Group-2" transform="translate(232.000000, 316.000000)" font-size="54">
                <text id="kikstart.dev" fill="#1A2B63" font-family="HelveticaNeue-Medium, Helvetica Neue" font-weight="400" letter-spacing="3.88000011">
                    <tspan x="0.115999371" y="53">kikstart.de</tspan>
                    <tspan x="304.858001" y="53">v</tspan>
                </text>
                <text id="ui" fill="#445EA0" font-family="HelveticaNeue-Light, Helvetica Neue" font-weight="300" letter-spacing="3.88500047">
                    <tspan x="371.121" y="52">ui</tspan>
                </text>
                <text id="|" fill="#999999" font-family="HelveticaNeue-Light, Helvetica Neue" font-weight="300" letter-spacing="3.88500047">
                    <tspan x="347.0635" y="52">|</tspan>
                </text>
            </g>
        </g>
    </g>
</svg>