<?xml version="1.0" encoding="UTF-8"?>
<svg width="1024px" height="1024px" viewBox="0 0 1024 1024" version="1.1" xmlns="http://www.w3.org/2000/svg" xmlns:xlink="http://www.w3.org/1999/xlink" style="background: #E83E8C;">
    <!-- Generator: Sketch 46.2 (44496) - http://www.bohemiancoding.com/sketch -->
    <title>kikstart-logo-square-white-pink-bg</title>
    <desc>Created with Sketch.</desc>
    <defs></defs>
    <g id="Symbols" stroke="none" stroke-width="1" fill="none" fill-rule="evenodd">
        <g id="kikstart-logo-square-white-pink-bg" fill="#FFFFFF">
            <path d="M378.372,466.128 L402.816,466.128 C412.645382,466.128 420.793301,464.770014 427.26,462.054 C433.726699,459.337986 439.287977,455.005363 443.944,449.056 L598.756,253.116 C605.222699,244.838625 612.012631,239.083349 619.126,235.85 C626.239369,232.61665 635.227946,231 646.092,231 L736.108,231 L547.152,464.188 C536.029278,478.414738 524.518726,488.502637 512.62,494.452 C521.156043,497.556016 528.851299,501.888639 535.706,507.45 C542.560701,513.011361 549.091969,520.318621 555.3,529.372 L750.076,792.048 L658.12,792.048 C645.703938,792.048 636.456697,790.302017 630.378,786.81 C624.299303,783.317983 619.190687,778.209367 615.052,771.484 L456.36,564.292 C451.445309,557.307965 445.754699,552.393348 439.288,549.548 C432.821301,546.702652 423.509394,545.28 411.352,545.28 L378.372,545.28 L378.372,792.048 L274,792.048 L274,231 L378.372,231 L378.372,466.128 Z" id="K"></path>
        </g>
    </g>
</svg>